<svg width="288" height="288" viewBox="0 0 288 288" fill="none" xmlns="http://www.w3.org/2000/svg">
<g clip-path="url(#clip0_362_549)">
<circle cx="144" cy="144" r="144" fill="#E6DAFE"/>
<path d="M162.545 132.237C162.545 142.466 154.257 150.76 144.036 150.76V169.283C164.479 169.283 181.054 152.695 181.054 132.237C181.054 111.779 164.479 95.1914 144.036 95.1914C137.297 95.1914 130.968 96.9926 125.527 100.151C114.46 106.551 107.018 118.523 107.018 132.237V224.852L123.66 241.507L125.527 243.375V132.237C125.527 122.008 133.814 113.714 144.036 113.714C154.257 113.714 162.545 122.008 162.545 132.237Z" fill="#242235"/>
<path d="M144.036 58.1484C130.55 58.1484 117.909 61.7592 107.018 68.0676C100.045 72.0972 93.7997 77.2327 88.5091 83.2395C76.9901 96.3002 70 113.458 70 132.24V187.809L88.5091 206.332V132.24C88.5091 115.787 95.6582 101 107.018 90.8212C112.359 86.046 118.629 82.276 125.527 79.8465C131.312 77.7856 137.548 76.6714 144.036 76.6714C174.7 76.6714 199.563 101.553 199.563 132.24C199.563 162.928 174.7 187.809 144.036 187.809V206.332C184.93 206.332 218.072 173.157 218.072 132.24C218.072 91.3239 184.93 58.1484 144.036 58.1484Z" fill="#242235"/>
</g>
<defs>
<clipPath id="clip0_362_549">
<rect width="288" height="288" fill="white"/>
</clipPath>
</defs>
</svg>
